<?xml version="1.0" standalone="no"?>
<!DOCTYPE svg PUBLIC "-//W3C//DTD SVG 20010904//EN"
 "http://www.w3.org/TR/2001/REC-SVG-20010904/DTD/svg10.dtd">
<svg version="1.0" xmlns="http://www.w3.org/2000/svg"
 width="700.000000pt" height="700.000000pt" viewBox="0 0 700.000000 700.000000"
 preserveAspectRatio="xMidYMid meet">
<metadata>
Created by potrace 1.11, written by Peter Selinger 2001-2013
</metadata>
<g transform="translate(0.000000,700.000000) scale(0.100000,-0.100000)"
fill="#000000" stroke="none">
<path d="M260 4120 l0 -1080 215 0 215 0 0 908 0 907 -76 90 c-42 50 -105 127
-141 173 l-66 82 -74 0 -73 0 0 -1080z"/>
<path d="M1825 4659 c-248 -297 -459 -552 -470 -566 l-20 -25 -200 243 c-110
133 -205 249 -212 258 -10 13 -12 -50 -13 -301 l0 -317 212 -241 c166 -188
215 -237 224 -228 19 22 352 395 493 553 73 83 137 152 142 153 5 2 9 -240 9
-572 l0 -576 215 0 215 0 0 1080 0 1080 -73 0 -73 0 -449 -541z"/>
<path d="M4910 4995 l0 -206 554 1 c606 2 607 1 675 -57 53 -45 75 -105 68
-183 -9 -103 -65 -175 -156 -200 -22 -6 -249 -10 -588 -10 l-553 0 0 -205 0
-205 413 0 413 0 256 -442 255 -443 247 -3 c135 -1 246 0 246 3 0 3 -117 210
-260 460 -143 250 -261 459 -262 464 -2 5 35 28 82 52 205 103 300 279 300
554 0 202 -43 326 -150 435 -57 57 -154 114 -245 144 -128 40 -219 46 -767 46
l-528 0 0 -205z"/>
<path d="M3418 4800 c-207 -37 -335 -164 -346 -340 -3 -62 0 -88 22 -154 25
-73 99 -205 125 -220 20 -13 11 -24 -46 -56 -83 -46 -185 -131 -227 -188 -150
-204 -134 -462 39 -636 116 -117 240 -160 460 -160 199 0 321 37 445 135 60
47 53 50 136 -56 l59 -75 199 0 199 0 -20 23 c-11 12 -88 104 -171 204 l-152
182 38 60 c21 32 50 92 65 132 29 83 78 251 74 255 -1 1 -69 4 -151 5 l-149 4
-10 -30 c-23 -72 -69 -185 -75 -185 -8 1 -226 290 -230 305 -1 6 33 36 76 68
93 66 157 134 191 203 32 64 40 178 18 255 -34 115 -137 217 -257 254 -63 19
-242 28 -312 15z m186 -251 c22 -6 52 -24 67 -40 53 -56 46 -136 -18 -201 -33
-34 -42 -38 -88 -38 -86 0 -150 49 -174 135 -30 108 79 181 213 144z m-35
-899 c88 -109 161 -203 161 -208 0 -13 -83 -70 -147 -100 -50 -23 -71 -27
-148 -27 -73 0 -98 4 -130 22 -141 76 -169 247 -64 395 24 33 134 118 154 118
7 0 85 -90 174 -200z"/>
<path d="M260 2825 l0 -55 3243 2 3242 3 0 50 0 50 -3242 3 -3243 2 0 -55z"/>
<path d="M810 2218 l0 -388 55 0 55 0 0 253 0 252 108 -110 c59 -60 178 -184
265 -274 l157 -165 0 387 0 387 -55 0 -55 0 0 -250 c0 -236 -5 -275 -27 -236
-4 8 -96 105 -203 217 -108 112 -219 229 -248 259 l-52 55 0 -387z"/>
<path d="M3000 2215 l0 -385 50 0 50 0 0 258 0 257 182 -190 c100 -104 220
-228 265 -275 l83 -85 0 383 0 382 -50 0 -50 0 0 -250 c0 -137 -3 -250 -8
-250 -4 0 -79 75 -166 168 -88 92 -204 213 -258 270 l-98 102 0 -385z"/>
<path d="M4720 2437 c-41 -89 -112 -243 -158 -342 -46 -99 -92 -199 -103 -222
l-18 -43 57 0 57 0 34 78 c19 42 39 83 44 90 7 9 48 12 164 10 l154 -3 37 -87
37 -88 59 0 c42 0 57 3 53 13 -3 6 -72 163 -155 347 -82 184 -157 352 -165
373 -9 20 -17 37 -19 37 -2 -1 -37 -74 -78 -163z m134 -208 c25 -59 46 -110
46 -113 0 -3 -49 -6 -110 -6 l-109 0 35 78 c20 42 45 97 55 121 12 26 23 40
28 35 5 -5 30 -57 55 -115z"/>
<path d="M6360 2554 c-13 -27 -69 -148 -125 -269 -191 -411 -205 -442 -205
-449 0 -4 25 -6 56 -4 l55 3 38 85 39 85 158 0 158 0 38 -85 37 -85 60 -3 60
-3 -96 213 c-53 117 -131 291 -173 387 l-78 174 -22 -49z m77 -321 l51 -118
-105 -3 c-58 -1 -108 -1 -110 2 -3 2 13 42 34 88 22 46 46 98 54 116 7 17 16
32 20 32 3 0 28 -53 56 -117z"/>
<path d="M1853 2552 c-101 -36 -180 -109 -225 -208 -19 -41 -23 -66 -23 -154
0 -96 2 -110 29 -163 35 -69 118 -150 183 -179 105 -47 263 -32 351 32 85 62
122 134 138 273 l6 57 -151 0 -151 0 0 -50 0 -50 90 0 c100 0 101 0 71 -65
-50 -111 -188 -156 -306 -101 -56 26 -117 87 -141 143 -22 50 -22 166 0 216
27 62 91 124 152 147 105 39 199 21 283 -55 l41 -37 29 24 c16 12 32 29 35 35
8 19 -71 90 -133 120 -73 36 -200 43 -278 15z"/>
<path d="M260 2195 l0 -365 200 0 200 0 0 50 0 50 -145 0 -145 0 0 125 0 125
140 0 140 0 0 50 0 50 -140 0 -140 0 0 90 0 90 145 0 145 0 0 50 0 50 -200 0
-200 0 0 -365z"/>
<path d="M2450 2195 l0 -365 200 0 200 0 0 50 0 49 -147 3 -148 3 0 120 0 120
143 3 142 3 0 49 0 49 -142 3 -143 3 0 85 0 85 148 3 147 3 0 49 0 50 -200 0
-200 0 0 -365z"/>
<path d="M3810 2195 l0 -365 55 0 55 0 0 170 0 170 160 0 160 0 0 -170 0 -170
50 0 50 0 0 365 0 365 -50 0 -50 0 0 -145 0 -145 -160 0 -160 0 0 145 0 145
-55 0 -55 0 0 -365z"/>
<path d="M5240 2196 l0 -367 53 3 52 3 3 148 c1 81 6 147 11 147 4 0 55 -67
112 -150 l104 -149 63 -1 c34 0 62 2 62 5 0 3 -48 71 -106 150 -99 137 -113
165 -78 165 22 0 95 71 111 107 17 42 17 134 -1 176 -17 42 -76 93 -123 107
-21 6 -89 14 -150 17 l-113 6 0 -367z m247 241 c57 -30 71 -114 27 -166 -26
-32 -76 -51 -131 -51 l-32 0 -3 116 c-2 64 -1 118 2 121 9 9 107 -5 137 -20z"/>
<path d="M5820 2195 l0 -365 55 0 55 0 0 365 0 365 -55 0 -55 0 0 -365z"/>
</g>
</svg>
